<svg xmlns="http://www.w3.org/2000/svg" viewBox="0 0 24 24" width="24" height="24" fill="none" stroke="currentColor" stroke-width="1.8" stroke-linecap="round" stroke-linejoin="round"><path d="M10.35 2.95 L13.65 2.95 L13.64 5.81 L15.21 6.47 L17.23 4.43 L19.57 6.77 L17.53 8.79 L18.19 10.36 L21.05 10.35 L21.05 13.65 L18.19 13.64 L17.53 15.21 L19.57 17.23 L17.23 19.57 L15.21 17.53 L13.64 18.19 L13.65 21.05 L10.35 21.05 L10.36 18.19 L8.79 17.53 L6.77 19.57 L4.43 17.23 L6.47 15.21 L5.81 13.64 L2.95 13.65 L2.95 10.35 L5.81 10.36 L6.47 8.79 L4.43 6.77 L6.77 4.43 L8.79 6.47 L10.36 5.81 Z"/><circle cx="12" cy="12" r="2.6"/><circle cx="12" cy="12" r="1.0" fill="currentColor" stroke="none"/></svg>